<svg width="40" height="21" viewBox="0 0 40 21" fill="none" xmlns="http://www.w3.org/2000/svg">
<path d="M23.7134 10.7093C24.6986 9.93843 25.4178 8.8813 25.7708 7.68501C26.1237 6.48872 26.093 5.21276 25.6829 4.03464C25.2727 2.85652 24.5036 1.83483 23.4823 1.11171C22.4611 0.388591 21.2387 0 19.9851 0C18.7315 0 17.509 0.388591 16.4878 1.11171C15.4666 1.83483 14.6975 2.85652 14.2873 4.03464C13.8772 5.21276 13.8464 6.48872 14.1994 7.68501C14.5524 8.8813 15.2715 9.93843 16.2568 10.7093C14.5686 11.382 13.0955 12.4976 11.9947 13.9374C10.8939 15.3771 10.2066 17.0869 10.0061 18.8846C9.99154 19.0159 10.0032 19.1487 10.0403 19.2754C10.0773 19.4022 10.1392 19.5205 10.2222 19.6235C10.39 19.8316 10.6339 19.9648 10.9005 19.994C11.167 20.0231 11.4342 19.9458 11.6434 19.779C11.8526 19.6122 11.9866 19.3695 12.0159 19.1045C12.185 17.6079 12.7742 16.199 13.7031 15.0327C13.9868 14.6764 14.3022 14.3428 14.6471 14.0362C14.7213 13.9702 14.7966 13.9057 14.873 13.8427C16.3132 12.6548 18.1279 12.0016 20.0052 12.0016C21.8779 12.0016 23.6884 12.6516 25.1269 13.834C25.2068 13.8998 25.2857 13.9672 25.3633 14.0362C25.7076 14.3423 26.0227 14.6754 26.3061 15.0311C27.2357 16.1978 27.8253 17.6073 27.9944 19.1045C28.0218 19.3501 28.1396 19.5769 28.3252 19.7411C28.5108 19.9054 28.7509 19.9955 28.9994 19.994H29.1099C29.3734 19.9638 29.6141 19.8314 29.7798 19.6254C29.9454 19.4195 30.0225 19.1568 29.9943 18.8946C29.7928 17.0918 29.1018 15.3776 27.9953 13.9357C26.8888 12.4937 25.4087 11.3784 23.7134 10.7093ZM19.9851 9.99973C19.1901 9.99973 18.4129 9.76527 17.7518 9.326C17.0908 8.88673 16.5756 8.26237 16.2713 7.53189C15.9671 6.8014 15.8875 5.9976 16.0426 5.22212C16.1977 4.44665 16.5805 3.73433 17.1427 3.17524C17.7049 2.61615 18.4211 2.23541 19.2009 2.08115C19.9806 1.9269 20.7889 2.00607 21.5234 2.30865C22.2579 2.61122 22.8857 3.12362 23.3274 3.78103C23.7691 4.43845 24.0048 5.21137 24.0048 6.00204C24.0048 7.06229 23.5813 8.07912 22.8275 8.82883C22.0736 9.57855 21.0512 9.99973 19.9851 9.99973Z" fill="#5A5A66"/>
<path fill-rule="evenodd" clip-rule="evenodd" d="M12.6166 8.14801C12.3342 9.10504 11.7589 9.95074 10.9707 10.5675C12.3269 11.1027 13.5111 11.995 14.3962 13.1485C14.5678 13.3721 14.7269 13.6038 14.873 13.8427C14.7966 13.9057 14.7213 13.9702 14.6471 14.0362C14.3022 14.3428 13.9868 14.6764 13.7031 15.0327C13.3479 14.3575 12.8714 13.7453 12.2906 13.229C11.1116 12.1807 9.58561 11.6013 8.00416 11.6013C6.4227 11.6013 4.89669 12.1807 3.71767 13.229C2.53865 14.2772 1.78929 15.7206 1.61275 17.2836C1.5893 17.4956 1.4821 17.6897 1.31475 17.8232C1.14739 17.9566 0.933586 18.0185 0.720365 17.9952C0.507144 17.9718 0.311974 17.8652 0.177788 17.6988C0.111346 17.6164 0.061877 17.5218 0.0322041 17.4204C0.00253114 17.3189 -0.00676409 17.2127 0.0048493 17.1077C0.165288 15.6696 0.715138 14.3017 1.59578 13.1499C2.47642 11.9981 3.65485 11.1056 5.00542 10.5675C4.21723 9.95074 3.64193 9.10504 3.35954 8.14801C3.07716 7.19097 3.10173 6.1702 3.42985 5.22771C3.75797 4.28521 4.37331 3.46786 5.19027 2.88937C6.00723 2.31087 6.98519 2 7.98808 2C8.99097 2 9.96892 2.31087 10.7859 2.88937C11.6028 3.46786 12.2182 4.28521 12.5463 5.22771C12.8744 6.1702 12.899 7.19097 12.6166 8.14801ZM6.20147 9.4608C6.73031 9.81222 7.35205 9.99978 7.98808 9.99978C8.84096 9.99978 9.65891 9.66284 10.262 9.06307C10.8651 8.4633 11.2039 7.64983 11.2039 6.80163C11.2039 6.16909 11.0153 5.55076 10.6619 5.02483C10.3086 4.49889 9.80632 4.08898 9.21871 3.84692C8.6311 3.60486 7.98451 3.54152 7.36071 3.66492C6.7369 3.78833 6.1639 4.09292 5.71416 4.54019C5.26442 4.98746 4.95815 5.55732 4.83407 6.1777C4.70998 6.79808 4.77367 7.44112 5.01706 8.02551C5.26046 8.6099 5.67264 9.10938 6.20147 9.4608Z" fill="#5A5A66"/>
<path fill-rule="evenodd" clip-rule="evenodd" d="M36.6166 8.14801C36.3342 9.10504 35.7589 9.95074 34.9707 10.5675C36.3269 11.1027 37.5111 11.995 38.3962 13.1485C39.2814 14.3021 39.8342 15.6735 39.9954 17.1157C40.018 17.3255 39.9563 17.5356 39.8238 17.7003C39.6913 17.8651 39.4987 17.9711 39.2879 17.9952H39.1995C39.0008 17.9964 38.8086 17.9243 38.6601 17.7929C38.5117 17.6615 38.4174 17.48 38.3956 17.2836C38.219 15.7206 37.4697 14.2772 36.2906 13.229C35.1116 12.1807 33.5856 11.6013 32.0042 11.6013C30.4227 11.6013 28.8967 12.1807 27.7177 13.229C27.1374 13.7449 26.6611 14.3566 26.3061 15.0311C26.0227 14.6754 25.7076 14.3423 25.3633 14.0362C25.2857 13.9672 25.2068 13.8998 25.1269 13.834C25.2708 13.5988 25.4272 13.3704 25.5958 13.1499C26.4764 11.9981 27.6548 11.1056 29.0054 10.5675C28.2172 9.95074 27.6419 9.10504 27.3595 8.14801C27.0772 7.19097 27.1017 6.1702 27.4298 5.22771C27.758 4.28521 28.3733 3.46786 29.1903 2.88937C30.0072 2.31087 30.9852 2 31.9881 2C32.991 2 33.9689 2.31087 34.7859 2.88937C35.6028 3.46786 36.2182 4.28521 36.5463 5.22771C36.8744 6.1702 36.899 7.19097 36.6166 8.14801ZM30.2015 9.4608C30.7303 9.81222 31.3521 9.99978 31.9881 9.99978C32.841 9.99978 33.6589 9.66284 34.262 9.06307C34.8651 8.4633 35.2039 7.64983 35.2039 6.80163C35.2039 6.16909 35.0153 5.55076 34.6619 5.02483C34.3086 4.49889 33.8063 4.08898 33.2187 3.84692C32.6311 3.60486 31.9845 3.54152 31.3607 3.66492C30.7369 3.78833 30.1639 4.09292 29.7142 4.54019C29.2644 4.98746 28.9581 5.55732 28.8341 6.1777C28.71 6.79808 28.7737 7.44112 29.0171 8.02551C29.2605 8.6099 29.6726 9.10938 30.2015 9.4608Z" fill="#5A5A66"/>
<path fill-rule="evenodd" clip-rule="evenodd" d="M38 14C38 13.4477 37.5523 13 37 13H3C2.44772 13 2 13.4477 2 14V20C2 20.5523 2.44772 21 3 21H3.05714C3.60943 21 4.05714 20.5523 4.05714 20V16C4.05714 15.4477 4.50486 15 5.05714 15H34.9429C35.4951 15 35.9429 15.4477 35.9429 16V20C35.9429 20.5523 36.3906 21 36.9429 21H37C37.5523 21 38 20.5523 38 20V14Z" fill="#2A2B2E"/>
<path d="M0 14C0 13.4477 0.447715 13 1 13H39C39.5523 13 40 13.4477 40 14C40 14.5523 39.5523 15 39 15H0.999999C0.447714 15 0 14.5523 0 14Z" fill="#2A2B2E"/>
</svg>
