<svg width="38" height="36" viewBox="0 0 38 36" fill="none" xmlns="http://www.w3.org/2000/svg">
<path d="M20.8 0C21.9046 0 22.8 0.895431 22.8 2V29.6658C22.8 30.7704 21.9046 31.6658 20.8 31.6658H17.2C16.0954 31.6658 15.2 30.7704 15.2 29.6658L15.2 2C15.2 0.895433 16.0954 0 17.2 0L20.8 0Z" fill="#2A2B2E"/>
<path d="M0 9.31083C0 7.44035 2.33868 6.59348 3.5363 8.03029L17.4637 24.7393C18.2633 25.6986 19.7367 25.6986 20.5363 24.7393L34.4637 8.03029C35.6613 6.59348 38 7.44035 38 9.31083V13.2301C38 13.6981 37.8359 14.1512 37.5363 14.5107L20.5363 34.906C19.7367 35.8652 18.2633 35.8652 17.4637 34.906L0.463702 14.5107C0.164086 14.1512 0 13.6981 0 13.2301V9.31083Z" fill="#2A2B2E"/>
</svg>
