<svg width="16" height="17" viewBox="0 0 16 17" fill="none" xmlns="http://www.w3.org/2000/svg">
<path d="M13.6 0.5H2.4C1.76348 0.5 1.15303 0.752856 0.702944 1.20294C0.252857 1.65303 1.44702e-07 2.26348 1.44702e-07 2.9V3.836C-0.000114566 4.16635 0.0679731 4.49317 0.2 4.796V4.844C0.313024 5.10078 0.473114 5.33413 0.672 5.532L5.6 10.428V15.7C5.59973 15.836 5.63411 15.9697 5.6999 16.0887C5.76568 16.2077 5.86071 16.3079 5.976 16.38C6.10331 16.4589 6.25022 16.5005 6.4 16.5C6.52523 16.4992 6.64854 16.4691 6.76 16.412L9.96 14.812C10.0919 14.7455 10.2029 14.6438 10.2805 14.5181C10.3582 14.3925 10.3995 14.2477 10.4 14.1V10.428L15.296 5.532C15.4949 5.33413 15.655 5.10078 15.768 4.844V4.796C15.911 4.49554 15.9901 4.16862 16 3.836V2.9C16 2.26348 15.7471 1.65303 15.2971 1.20294C14.847 0.752856 14.2365 0.5 13.6 0.5ZM9.032 9.532C8.95785 9.60675 8.89919 9.6954 8.85938 9.79287C8.81957 9.89034 8.79939 9.99471 8.8 10.1V13.604L7.2 14.404V10.1C7.20061 9.99471 7.18043 9.89034 7.14061 9.79287C7.1008 9.6954 7.04214 9.60675 6.968 9.532L2.728 5.3H13.272L9.032 9.532ZM14.4 3.7H1.6V2.9C1.6 2.68783 1.68429 2.48434 1.83431 2.33431C1.98434 2.18429 2.18783 2.1 2.4 2.1H13.6C13.8122 2.1 14.0157 2.18429 14.1657 2.33431C14.3157 2.48434 14.4 2.68783 14.4 2.9V3.7Z" fill="#F3F9FF"/>
</svg>
