<svg width="60" height="38" viewBox="0 0 60 38" fill="none" xmlns="http://www.w3.org/2000/svg">
<path d="M60 20.8C60 21.9046 59.1046 22.8 58 22.8H6.08328C4.97871 22.8 4.08328 21.9046 4.08328 20.8V17.2C4.08328 16.0954 4.97871 15.2 6.08328 15.2H58C59.1046 15.2 60 16.0954 60 17.2V20.8Z" fill="#2A2B2E"/>
<path d="M26.4383 4.76837e-07C28.3087 4.76837e-07 29.1556 2.33868 27.7188 3.5363L11.0098 17.4637C10.0505 18.2633 10.0505 19.7367 11.0098 20.5363L27.7188 34.4637C29.1556 35.6613 28.3087 38 26.4383 38H22.519C22.051 38 21.5979 37.8359 21.2384 37.5363L0.843133 20.5363C-0.116144 19.7367 -0.116143 18.2633 0.843133 17.4637L21.2384 0.463702C21.5979 0.164087 22.051 4.76837e-07 22.519 4.76837e-07H26.4383Z" fill="#2A2B2E"/>
</svg>
