<svg width="17" height="17" viewBox="0 0 17 17" fill="none" xmlns="http://www.w3.org/2000/svg">
<path d="M11.1743 9.06746C11.9581 8.45074 12.5303 7.60504 12.8111 6.64801C13.092 5.69097 13.0675 4.6702 12.7412 3.72771C12.4149 2.78521 11.8029 1.96786 10.9904 1.38937C10.178 0.810873 9.20536 0.5 8.20798 0.5C7.21059 0.5 6.23801 0.810873 5.42553 1.38937C4.61305 1.96786 4.00108 2.78521 3.67476 3.72771C3.34844 4.6702 3.324 5.69097 3.60484 6.64801C3.88568 7.60504 4.45783 8.45074 5.24169 9.06746C3.89852 9.60558 2.72657 10.4981 1.85076 11.6499C0.974947 12.8017 0.428114 14.1696 0.268556 15.6077C0.257006 15.7127 0.26625 15.8189 0.29576 15.9204C0.32527 16.0218 0.374468 16.1164 0.440546 16.1988C0.573995 16.3652 0.768094 16.4718 0.980145 16.4952C1.1922 16.5185 1.40483 16.4566 1.57126 16.3232C1.7377 16.1897 1.84431 15.9956 1.86763 15.7836C2.0432 14.2206 2.78845 12.7772 3.961 11.729C5.13355 10.6807 6.6512 10.1013 8.22397 10.1013C9.79674 10.1013 11.3144 10.6807 12.4869 11.729C13.6595 12.7772 14.4047 14.2206 14.5803 15.7836C14.602 15.98 14.6958 16.1615 14.8434 16.2929C14.9911 16.4243 15.1822 16.4964 15.3798 16.4952H15.4678C15.6774 16.4711 15.8689 16.3651 16.0007 16.2003C16.1325 16.0356 16.1939 15.8254 16.1714 15.6157C16.0111 14.1735 15.4613 12.8021 14.581 11.6485C13.7007 10.495 12.523 9.60273 11.1743 9.06746V9.06746ZM8.20798 8.49978C7.57544 8.49978 6.95711 8.31222 6.43118 7.9608C5.90524 7.60938 5.49533 7.1099 5.25327 6.52551C5.01121 5.94112 4.94787 5.29808 5.07127 4.6777C5.19467 4.05732 5.49927 3.48746 5.94654 3.04019C6.39381 2.59292 6.96367 2.28833 7.58405 2.16492C8.20443 2.04152 8.84747 2.10486 9.43186 2.34692C10.0162 2.58898 10.5157 2.99889 10.8671 3.52483C11.2186 4.05076 11.4061 4.66909 11.4061 5.30163C11.4061 6.14983 11.0692 6.9633 10.4694 7.56307C9.86965 8.16284 9.05618 8.49978 8.20798 8.49978Z" fill="#5A5A66"/>
</svg>
