<svg width="60" height="38" viewBox="0 0 60 38" fill="none" xmlns="http://www.w3.org/2000/svg">
<path d="M0 17.2C0 16.0954 0.895431 15.2 2 15.2H53.9167C55.0213 15.2 55.9167 16.0954 55.9167 17.2V20.8C55.9167 21.9046 55.0213 22.8 53.9167 22.8H2C0.895428 22.8 0 21.9046 0 20.8V17.2Z" fill="#2A2B2E"/>
<path d="M33.5617 38C31.6913 38 30.8444 35.6613 32.2812 34.4637L48.9902 20.5363C49.9495 19.7367 49.9495 18.2633 48.9902 17.4637L32.2812 3.5363C30.8444 2.33868 31.6913 0 33.5617 0H37.481C37.949 0 38.4021 0.164087 38.7616 0.463702L59.1569 17.4637C60.1161 18.2633 60.1161 19.7367 59.1569 20.5363L38.7616 37.5363C38.4021 37.8359 37.949 38 37.481 38H33.5617Z" fill="#2A2B2E"/>
</svg>
