<svg width="38" height="36" viewBox="0 0 38 36" fill="none" xmlns="http://www.w3.org/2000/svg">
<path d="M17.2 35.7491C16.0954 35.7491 15.2 34.8537 15.2 33.7491L15.2 6.08329C15.2 4.97872 16.0954 4.08328 17.2 4.08328H20.8C21.9046 4.08328 22.8 4.97871 22.8 6.08328L22.8 33.7491C22.8 34.8537 21.9046 35.7491 20.8 35.7491L17.2 35.7491Z" fill="#2A2B2E"/>
<path d="M38 26.4382C38 28.3087 35.6613 29.1556 34.4637 27.7188L20.5363 11.0098C19.7367 10.0505 18.2633 10.0505 17.4637 11.0098L3.5363 27.7188C2.33868 29.1556 0 28.3087 0 26.4383L0 22.519C0 22.051 0.164087 21.5979 0.463703 21.2384L17.4637 0.843127C18.2633 -0.116149 19.7367 -0.116148 20.5363 0.843128L37.5363 21.2384C37.8359 21.5979 38 22.051 38 22.519V26.4382Z" fill="#2A2B2E"/>
</svg>
