<svg width="350" height="229" viewBox="0 0 350 229" fill="none" xmlns="http://www.w3.org/2000/svg">
<g clip-path="url(#clip0_9_60)">
<path d="M322.926 110.578H39.1151C35.3109 110.578 32.2159 107.486 32.2159 103.685V6.89259C32.2159 3.092 35.3109 0 39.1151 0H322.926C326.731 0 329.826 3.092 329.826 6.89259V103.685C329.826 107.486 326.731 110.578 322.926 110.578ZM39.1151 0.82175C35.7645 0.82175 33.0385 3.5452 33.0385 6.89259V103.685C33.0385 107.033 35.7645 109.757 39.1151 109.757H322.926C326.277 109.757 329.003 107.033 329.003 103.685V6.89259C329.003 3.5452 326.277 0.82175 322.926 0.82175H39.1151Z" fill="#3F3D56"/>
<path d="M350 226.21H0V226.902H350V226.21Z" fill="#E6E6E6"/>
<path d="M350 190.875H0V191.566H350V190.875Z" fill="#E6E6E6"/>
<path d="M159.505 114.138C159.756 117.293 161.59 119.722 163.6 119.562C165.61 119.401 167.035 116.714 166.783 113.557C166.7 112.295 166.315 111.071 165.661 109.988L164.427 96.6312L158.166 97.3433L160.047 110.435C159.573 111.608 159.387 112.878 159.505 114.138Z" fill="#FFB6B6"/>
<path d="M152.025 51.825C152.025 51.825 157.878 48.7295 160.846 53.3553C163.814 57.9812 165.862 108.01 165.862 108.01L157.636 108.888L156.077 73.6336L152.025 51.825Z" fill="#E6E6E6"/>
<path d="M139.877 188.265L144.642 188.264L146.909 169.9L139.876 169.901L139.877 188.265Z" fill="#FFB6B6"/>
<path d="M156.204 188.157C156.352 188.406 156.431 189.212 156.431 189.503C156.431 190.395 155.706 191.118 154.813 191.118H140.055C139.446 191.118 138.952 190.625 138.952 190.016V189.402C138.952 189.402 138.222 187.557 139.725 185.283C139.725 185.283 141.593 187.064 144.384 184.275L145.207 182.785L151.166 187.139L154.469 187.545C155.191 187.634 155.832 187.531 156.204 188.157Z" fill="#2F2E41"/>
<path d="M167.454 187.477L172.071 186.298L169.718 167.945L162.904 169.684L167.454 187.477Z" fill="#FFB6B6"/>
<path d="M183.246 183.335C183.452 183.54 183.727 184.301 183.799 184.583C184.02 185.447 183.498 186.327 182.632 186.548L168.334 190.197C167.743 190.348 167.142 189.992 166.991 189.402L166.839 188.807C166.839 188.807 165.675 187.2 166.568 184.626C166.568 184.626 168.819 185.889 170.833 182.496L171.261 180.849L178.113 183.594L181.414 183.171C182.136 183.079 182.731 182.821 183.246 183.335Z" fill="#2F2E41"/>
<path d="M135.934 47.8773L135.708 46.2392L138.394 39.6865L145.772 38.8675L147.366 48.2484L135.934 47.8773Z" fill="#FFB6B6"/>
<path opacity="0.1" d="M135.934 47.8773L135.708 46.2392L138.394 39.6865L145.772 38.8675L147.366 48.2484L135.934 47.8773Z" fill="black"/>
<path d="M127.326 94.1552L124.046 103.165L126.506 108.08L138.804 179.339H146.98L145.362 116.27L164.219 179.339H172.311L165.804 136.747L160.94 97.4315L157.989 95.6106L143.723 87.6026L127.326 94.1552Z" fill="#2F2E41"/>
<path d="M148.232 100.298L143.313 101.117L136.754 85.5549H151.511L148.232 100.298Z" fill="#E6E6E6"/>
<path d="M158.07 96.2029L148.232 100.298L144.953 92.9266L143.313 101.117L126.096 95.5804L128.555 85.5549L126.096 52.7918L134.778 47.009L135.934 46.2392L146.592 47.0582L147.527 47.5661L153.971 51.1536L155.611 78.1832L158.07 96.2029Z" fill="#2F2E41"/>
<path d="M147.527 47.5661L142.903 67.1257L134.778 47.009L135.934 46.2392L146.592 47.0582L147.527 47.5661Z" fill="#E6E6E6"/>
<path d="M139.624 46.2392L137.984 49.0604L139.624 50.0009L138.804 67.1765L142.083 71.6306L145.362 65.0476L142.903 50.0009L143.723 46.2392H139.624Z" fill="#2F2E41"/>
<path d="M142.083 44.601C146.385 44.601 149.872 41.1172 149.872 36.8198C149.872 32.5223 146.385 29.0385 142.083 29.0385C137.782 29.0385 134.294 32.5223 134.294 36.8198C134.294 41.1172 137.782 44.601 142.083 44.601Z" fill="#FFB6B6"/>
<path d="M137.106 37.5023L138.788 38.2361L139.523 33.8335C139.523 33.8335 142.461 32.366 144.664 33.0998C146.867 33.8335 150.54 33.0998 150.54 33.0998C150.54 33.0998 150.54 25.7622 145.399 25.7622C140.257 25.7622 135.116 26.496 135.116 28.6972C135.116 30.8985 132.913 33.0998 132.913 33.0998C132.913 33.0998 129.975 37.5023 132.913 40.4374C135.851 43.3724 137.32 43.3724 137.32 43.3724L137.106 37.5023Z" fill="#2F2E41"/>
<path d="M121.993 113.908C121.907 117.072 123.472 119.681 125.488 119.735C127.504 119.789 129.207 117.268 129.292 114.102C129.343 112.838 129.091 111.58 128.555 110.434L128.748 97.022L122.446 97.0659L122.926 110.283C122.329 111.4 122.01 112.642 121.993 113.908Z" fill="#FFB6B6"/>
<path d="M129.789 51.1383C129.789 51.1383 124.46 49.5001 122.001 54.4146C119.541 59.329 122.82 109.293 122.82 109.293H131.093L128.898 74.0724L129.789 51.1383Z" fill="#E6E6E6"/>
<path d="M334.217 144.221L314.344 138.143C313.904 138.008 313.443 137.959 312.985 137.998L212.266 146.562C210.83 146.684 210.469 148.619 211.764 149.25L214.991 150.82H214.905V225.99H217.945V152.258L228.056 157.179C228.83 157.556 229.693 157.709 230.549 157.623L231.625 157.514V225.99H234.665V157.208L312.567 149.346V225.99H315.607V149.039L328.527 147.736V225.99H331.567V147.429L333.924 147.191C335.579 147.024 335.807 144.707 334.217 144.221Z" fill="#3F3D56"/>
<path d="M241.505 146.264C243.405 146.264 271.526 142.847 271.526 142.847L275.706 148.542L246.445 154.237L241.505 146.264Z" fill="white"/>
<path d="M272.368 223.071L267.482 223.062L265.191 204.231L272.401 204.244L272.368 223.071Z" fill="#A0616A"/>
<path d="M255.629 222.932C255.477 223.187 255.395 224.013 255.395 224.311C255.393 225.226 256.134 225.969 257.05 225.97L272.18 225.996C272.805 225.997 273.312 225.492 273.313 224.868L273.314 224.239C273.314 224.239 274.066 222.349 272.529 220.015C272.529 220.015 270.611 221.837 267.754 218.973L266.913 217.444L260.796 221.897L257.409 222.308C256.668 222.397 256.012 222.291 255.629 222.932Z" fill="#2F2E41"/>
<path d="M298.589 214.314L294.735 217.219L281.685 203.748L287.375 199.461L298.589 214.314Z" fill="#A0616A"/>
<path d="M285.318 224.18C285.35 224.472 285.779 225.172 285.956 225.406C286.501 226.128 287.529 226.272 288.251 225.727L300.188 216.731C300.681 216.36 300.779 215.659 300.407 215.167L300.032 214.67C300.032 214.67 299.496 212.733 296.891 211.81C296.891 211.81 296.468 214.389 292.507 213.835L290.931 213.132L288.771 220.286L286.347 222.627C285.817 223.14 285.236 223.447 285.318 224.18Z" fill="#2F2E41"/>
<path d="M288.379 116.993C288.379 121.494 284.726 125.142 280.221 125.142C275.716 125.142 272.063 121.494 272.063 116.993C272.063 112.491 275.716 108.843 280.221 108.843C284.726 108.843 288.379 112.491 288.379 116.993Z" fill="#A0616A"/>
<path d="M287.61 163.983C287.61 163.983 257.575 162.285 255.875 165.682C254.174 169.079 265.066 215.74 265.066 215.74L274.782 213.705L270.042 180.968C270.042 180.968 295.106 187.6 298.506 179.673C301.907 171.747 300.928 168.795 300.928 168.795L287.61 163.983Z" fill="#2F2E41"/>
<path d="M295.305 158.281C295.305 158.281 265.89 164.581 265.15 168.306C264.41 172.031 287.268 214.152 287.268 214.152L296.1 209.622L282.861 179.304C282.861 179.304 308.788 179.075 309.968 170.533C311.148 161.99 309.423 159.402 309.423 159.402L295.305 158.281Z" fill="#2F2E41"/>
<path d="M298.661 126.333H284.529L274.859 142.186C274.859 142.186 272.592 152.43 274.859 153.536C277.126 154.641 277.126 166.531 277.126 166.531L300.928 168.795C300.928 168.795 304.328 133.127 303.195 129.73C302.061 126.333 298.661 126.333 298.661 126.333Z" fill="#1F507A"/>
<path d="M276.276 136.807L274.859 153.536L258.924 146.779L255.12 144.868C254.376 143.898 253.409 143.119 252.301 142.599C249.547 141.258 246.623 141.59 245.769 143.34C244.915 145.091 246.454 147.597 249.208 148.937C250.301 149.488 251.511 149.769 252.735 149.757L263.863 156.072L263.876 156.047L263.926 156.135L281.376 163.417L285.392 141.456L276.276 136.807Z" fill="#A0616A"/>
<path d="M274.576 118.123C274.576 118.123 266.075 119.256 269.475 111.895C269.475 111.895 268.957 107.905 271.483 107.636C274.009 107.366 277.409 102.837 277.409 102.837C277.409 102.837 285.205 98.8735 289.241 102.837C293.277 106.8 305.178 130.013 305.178 130.013L297.244 138.505C297.244 138.505 292.474 125.978 286.925 127.429C281.376 128.881 276.276 133.207 276.276 133.207C276.276 133.207 270.645 130.392 273.177 127.938C275.709 125.484 274.576 118.123 274.576 118.123Z" fill="#2F2E41"/>
<path d="M285.91 130.579C285.91 130.579 281.943 125.484 279.109 129.447C276.276 133.41 274.009 138.505 274.009 138.505L285.343 142.469L285.91 130.579Z" fill="#1F507A"/>
<path d="M328.944 224.863L315.776 183.049L315.778 183.048H315.808L315.755 182.98L315.754 182.979L314.816 180L314.816 180C316.245 178.77 317.218 177.012 317.412 174.988L311.392 141.914C311.807 137.57 308.474 133.774 304.108 133.618L290.526 133.584C286.665 133.447 283.321 136.234 282.759 140.053L282.459 142.081L278.297 170.361C278.145 171.378 278.206 172.38 278.446 173.318L275.451 173.709L274.543 173.831L270.952 174.297L270.941 174.301L270.492 174.358H270.006V186.507H270.036V225.337C270.036 225.588 270.241 225.793 270.492 225.793C270.747 225.793 270.952 225.588 270.952 225.337V186.507H276.28L281.596 225.292C281.63 225.52 281.824 225.687 282.052 225.687C282.071 225.687 282.094 225.687 282.113 225.683C282.364 225.649 282.538 225.417 282.504 225.166L277.207 186.507H302.77C305.308 186.507 307.66 185.702 309.575 184.324L319.711 225.221C319.764 225.428 319.95 225.565 320.154 225.565C320.191 225.565 320.229 225.561 320.267 225.551C320.512 225.489 320.66 225.24 320.598 224.995L310.365 183.703C310.501 183.59 310.637 183.469 310.765 183.344L314.834 183.105L328.071 225.138C328.132 225.333 328.313 225.458 328.507 225.458C328.553 225.458 328.599 225.451 328.645 225.437C328.886 225.361 329.02 225.104 328.944 224.863ZM313.946 180.649C313.98 180.63 314.011 180.607 314.041 180.588L314.139 180.899L313.946 180.649Z" fill="#E6E6E6"/>
<path d="M70.5587 153.986L79.421 148.355L83.024 150.526L70.5587 164.836V153.986Z" fill="#FFB6B6"/>
<path d="M58.4396 132.192C58.4396 132.192 52.5532 133.576 55.3232 141.532C58.0933 149.489 67.0961 166.093 69.8662 165.055C72.6362 164.018 72.9825 153.64 72.9825 153.64C72.9825 153.64 72.6362 153.986 71.2512 152.602C69.8662 151.218 69.8662 151.85 69.8662 150.323C69.8662 148.797 68.7333 147.665 68.7333 147.665L67.4424 144.991C67.4424 144.991 67.4423 132.538 62.2484 131.846C57.0545 131.154 58.4396 132.192 58.4396 132.192Z" fill="#E6E6E6"/>
<path d="M85.9411 150.154C88.2399 147.858 88.9525 144.846 87.5326 143.428C86.1128 142.009 83.0982 142.721 80.7995 145.017C78.5007 147.314 77.7881 150.326 79.208 151.744C80.6278 153.163 83.6424 152.451 85.9411 150.154Z" fill="#FFB6B6"/>
<path d="M35.5119 178.028L41.5592 188.028L76.8001 185.945L67.4164 173.862L35.5119 178.028Z" fill="#E6E6E6"/>
<path d="M46.042 224.798C45.8367 224.798 45.6579 224.647 45.6293 224.438L35.0987 147.601C35.0674 147.373 35.2271 147.163 35.4553 147.132C35.6833 147.099 35.8937 147.26 35.9251 147.488L46.4556 224.325C46.4869 224.553 46.3273 224.763 46.0991 224.794C46.0798 224.797 46.0608 224.798 46.042 224.798Z" fill="#E6E6E6"/>
<path d="M35.5119 224.896C35.2816 224.896 35.0948 224.709 35.0948 224.479V147.56C35.0948 147.329 35.2816 147.143 35.5119 147.143C35.7422 147.143 35.9289 147.329 35.9289 147.56V224.479C35.9289 224.709 35.7422 224.896 35.5119 224.896Z" fill="#E6E6E6"/>
<path d="M88.3732 224.59C88.1959 224.59 88.0315 224.476 87.9755 224.298L63.0566 145.17C62.9875 144.95 63.1095 144.716 63.3293 144.647C63.5489 144.579 63.7832 144.7 63.8522 144.92L88.7711 224.048C88.8402 224.267 88.7182 224.501 88.4984 224.571C88.4568 224.584 88.4146 224.59 88.3732 224.59Z" fill="#E6E6E6"/>
<path d="M80.7618 224.687C80.5756 224.687 80.4059 224.562 80.3579 224.373L63.0502 154.537C62.9935 154.314 63.1284 154.087 63.3516 154.031C63.5755 153.974 63.8018 154.109 63.8586 154.332L81.1663 224.168C81.223 224.391 81.0881 224.618 80.8649 224.674C80.8304 224.683 80.7958 224.687 80.7618 224.687Z" fill="#E6E6E6"/>
<path d="M35.5119 148.785L64.3928 148.341L69.7102 178.653H35.9289L35.5119 148.785Z" fill="#E6E6E6"/>
<path d="M79.8947 193.356L72.6161 206.159L81.0671 208.017L84.5903 198.912L79.8947 193.356Z" fill="#FFB6B6"/>
<path d="M75.2304 203.742C75.2304 203.742 74.9476 201.654 73.2848 202.316C71.6221 202.979 66.8233 205.441 66.8233 205.441C66.8233 205.441 79.3396 225.759 81.715 224.813C84.0903 223.866 81.2468 218.123 81.2468 218.123L81.8744 207.971L75.2304 203.742Z" fill="#2F2E41"/>
<path d="M47.7055 168.515C47.7055 168.515 45.1086 180.449 53.0726 184.601C61.0365 188.752 88.2179 178.547 88.2179 178.547L75.7526 197.207L84.4091 200.687C84.4091 200.687 104.146 174.742 102.761 170.59C101.376 166.439 92.0268 166.093 92.0268 166.093L70.9049 167.131L65.3648 165.401L47.7055 168.515Z" fill="#2F2E41"/>
<path d="M69.1268 199.038L57.6843 208.317L64.8789 213.12L71.4771 205.92L69.1268 199.038Z" fill="#FFB6B6"/>
<path d="M60.9997 207.016C60.9997 207.016 61.4967 204.969 59.7066 204.981C57.9165 204.994 52.55 205.543 52.55 205.543C52.55 205.543 56.8078 229.018 59.365 229C61.9222 228.982 61.3656 222.599 61.3656 222.599L65.6478 213.371L60.9997 207.016Z" fill="#2F2E41"/>
<path d="M48.1924 164.198C48.1924 164.198 41.4265 174.37 47.3326 181.132C53.2386 187.894 82.2735 188.27 82.2735 188.27L63.8663 201.119L70.6619 207.507C70.6619 207.507 98.4955 190.516 98.7174 186.146C98.9393 181.776 90.3572 178.055 90.3572 178.055L70.3053 171.343L65.775 167.718L48.1924 164.198Z" fill="#2F2E41"/>
<path d="M65.5734 140.636C65.5734 140.636 58.9944 138.215 55.8781 138.215C55.5803 138.215 55.286 138.249 54.9917 138.311C52.9972 138.734 51.162 140.446 50.2825 141.38C49.9397 141.747 49.7424 141.992 49.7424 141.992C49.7424 141.992 49.7631 141.754 49.8047 141.335C50.009 139.135 50.7638 131.915 52.1177 127.294C52.6025 125.643 53.1599 124.325 53.8005 123.685C55.2929 122.191 55.982 120.399 56.3005 119.064C56.5706 117.919 56.5706 117.113 56.5706 117.113L54.0464 116.027L53.5789 112.975C53.4958 113.335 53.1115 114.037 51.8199 115.383C51.7091 115.497 51.5879 115.594 51.4598 115.677C49.5969 116.846 45.7985 114.812 43.752 113.532C44.6039 110.575 46.1482 107.869 48.9529 107.427C55.5318 106.389 55.5318 102.584 59.6869 106.735C60.0297 107.077 60.376 107.406 60.7223 107.724C62.0519 110.263 62.5367 113.667 62.7098 116.033C62.8345 117.69 62.8033 118.842 62.8033 118.842C62.8033 118.842 64.5346 129.22 67.3047 131.296C70.0747 133.372 65.5734 140.636 65.5734 140.636Z" fill="#2F2E41"/>
<path d="M52.7617 124.031L48.0831 130.888L58.6482 133.718V124.031H52.7617Z" fill="#FFB6B6"/>
<path opacity="0.1" d="M52.7617 124.031L48.0831 130.888L58.6482 133.718V124.031H52.7617Z" fill="black"/>
<path d="M59.3052 130.635L49.2637 126.484C49.2637 126.484 35.7596 132.365 36.7983 143.781C37.8371 155.196 47.5324 174.915 47.5324 174.915L66.923 166.612L64.8454 144.473L59.3052 130.635Z" fill="#E6E6E6"/>
<path d="M54.9998 127.092C59.8926 127.092 63.8589 123.13 63.8589 118.242C63.8589 113.354 59.8926 109.391 54.9998 109.391C50.1071 109.391 46.1408 113.354 46.1408 118.242C46.1408 123.13 50.1071 127.092 54.9998 127.092Z" fill="#FFB6B6"/>
<path d="M66.9584 115.037C65.2271 116.767 63.8421 118.496 63.8421 118.496L63.1495 115.729C63.1495 115.729 62.9903 115.847 62.7098 116.033C61.6121 116.781 58.6655 118.659 56.3005 119.064C55.2479 119.244 54.313 119.13 53.7036 118.496C52.412 117.151 52.0277 116.449 51.9446 116.089L51.4771 119.14L48.9529 120.226C48.9529 120.226 48.9529 124.024 51.723 126.799C51.858 126.934 51.9896 127.1 52.1177 127.294C53.4404 129.286 54.3892 134.164 54.9916 138.311C55.5249 141.999 55.7811 145.106 55.7811 145.106C55.7811 145.106 53.1599 141.826 50.2825 141.38C50.1232 141.356 49.964 141.338 49.8047 141.335C49.7527 141.328 49.6973 141.328 49.6454 141.328C46.5291 141.328 39.9501 143.75 39.9501 143.75C39.9501 143.75 35.4487 136.485 38.2188 134.409C40.9889 132.334 42.7202 121.956 42.7202 121.956C42.7202 121.956 42.6059 117.514 43.752 113.532C44.6039 110.575 46.1482 107.869 48.9529 107.427C55.5318 106.389 55.5318 102.584 59.6869 106.735C60.0297 107.077 60.376 107.406 60.7223 107.724C64.5934 111.28 68.5477 113.449 66.9584 115.037Z" fill="#2F2E41"/>
<path d="M28.1033 161.474H24.8132V226.392H28.1033V161.474Z" fill="#3F3D56"/>
<path d="M107.889 161.474H104.598V226.392H107.889V161.474Z" fill="#3F3D56"/>
<path d="M86.9141 133.945H65.1171V155.722H86.9141V133.945Z" fill="#1F507A"/>
<path d="M52.5532 157.099L61.4155 151.468L65.0185 153.64L52.5532 167.95V157.099Z" fill="#FFB6B6"/>
<path d="M40.4341 135.305C40.4341 135.305 34.5476 136.689 37.3177 144.645C40.0878 152.602 49.0906 169.207 51.8606 168.169C54.6307 167.131 54.977 156.753 54.977 156.753C54.977 156.753 54.6307 157.099 53.2457 155.715C51.8606 154.332 51.8606 154.964 51.8606 153.437C51.8606 151.91 50.7278 150.778 50.7278 150.778L49.4368 148.105C49.4368 148.105 49.4368 135.651 44.2429 134.959C39.049 134.268 40.4341 135.305 40.4341 135.305Z" fill="#E6E6E6"/>
<path d="M67.9356 153.268C70.2344 150.971 70.9469 147.959 69.5271 146.541C68.1073 145.122 65.0927 145.834 62.7939 148.131C60.4951 150.427 59.7826 153.439 61.2025 154.858C62.6223 156.276 65.6368 155.564 67.9356 153.268Z" fill="#FFB6B6"/>
<path d="M114.469 159.009H14.9428V166.404H114.469V159.009Z" fill="#3F3D56"/>
<path d="M215.586 99.8427H200.888C199.723 99.8427 198.778 100.786 198.778 101.95V108.007C198.778 109.171 199.723 110.115 200.888 110.115H215.586C216.752 110.115 217.696 109.171 217.696 108.007V101.95C217.696 100.786 216.752 99.8427 215.586 99.8427Z" fill="#3F3D56"/>
<path d="M246.431 105.899H231.733C230.567 105.899 229.623 106.843 229.623 108.007V108.007C229.623 109.171 230.567 110.115 231.733 110.115H246.431C247.596 110.115 248.541 109.171 248.541 108.007C248.541 106.843 247.596 105.899 246.431 105.899Z" fill="#1F507A"/>
</g>
<defs>
<clipPath id="clip0_9_60">
<rect width="350" height="229" fill="white"/>
</clipPath>
</defs>
</svg>
