<svg width="26" height="17" viewBox="0 0 26 17" fill="none" xmlns="http://www.w3.org/2000/svg">
<path d="M0.263733 8.52061C0.263733 7.43112 0.379209 6.40615 0.610162 5.44568C0.841115 4.48522 1.15967 3.63227 1.56583 2.88683C1.97199 2.14139 2.44186 1.56081 2.97544 1.14509C3.51698 0.71503 4.09436 0.5 4.70758 0.5C5.31284 0.5 5.88225 0.71503 6.41583 1.14509C6.95738 1.56081 7.43123 2.14139 7.83739 2.88683C8.25151 3.63227 8.57405 4.48522 8.805 5.44568C9.04391 6.40615 9.16337 7.43112 9.16337 8.52061C9.16337 9.62443 9.04391 10.6566 8.805 11.617C8.57405 12.5775 8.25151 13.4305 7.83739 14.1759C7.43123 14.907 6.95738 15.4804 6.41583 15.8961C5.88225 16.2975 5.31284 16.4982 4.70758 16.4982C4.0864 16.4982 3.50902 16.2975 2.97544 15.8961C2.44186 15.4804 1.97199 14.9142 1.56583 14.1974C1.15967 13.4663 0.841115 12.6205 0.610162 11.66C0.379209 10.6852 0.263733 9.63876 0.263733 8.52061ZM1.69723 8.52061C1.69723 9.29471 1.77289 10.0186 1.9242 10.6924C2.08348 11.3662 2.30249 11.9611 2.58122 12.4772C2.85996 12.9789 3.1825 13.3731 3.54884 13.6598C3.91517 13.9465 4.31337 14.0899 4.74342 14.0899C5.15754 14.0899 5.54379 13.9465 5.90216 13.6598C6.2685 13.3731 6.58706 12.9789 6.85783 12.4772C7.1286 11.9611 7.33964 11.3662 7.49096 10.6924C7.65024 10.0186 7.72987 9.29471 7.72987 8.52061C7.72987 7.73217 7.65024 7.00106 7.49096 6.3273C7.33168 5.65354 7.11666 5.05863 6.84588 4.54256C6.57511 4.02649 6.25656 3.6251 5.89022 3.33839C5.52388 3.05169 5.12967 2.90833 4.70758 2.90833C4.28549 2.90833 3.89128 3.05169 3.52494 3.33839C3.1586 3.6251 2.83607 4.02649 2.55733 4.54256C2.28656 5.05863 2.07552 5.66071 1.9242 6.34881C1.77289 7.02257 1.69723 7.7465 1.69723 8.52061Z" fill="#5A5A66"/>
<path d="M17.4713 15.1005C17.3519 15.2582 17.1647 15.4517 16.9099 15.6811C16.655 15.9105 16.3524 16.1112 16.002 16.2832C15.6595 16.4409 15.2773 16.5125 14.8552 16.4982C14.1783 16.4839 13.569 16.2688 13.0275 15.8531C12.4859 15.4231 12.028 14.8496 11.6537 14.1329C11.2794 13.4018 10.9887 12.5703 10.7817 11.6385C10.5826 10.6924 10.483 9.68894 10.483 8.62812C10.483 7.43829 10.5865 6.34881 10.7936 5.35967C11.0007 4.37053 11.2953 3.51758 11.6776 2.80082C12.0599 2.06972 12.5138 1.50347 13.0394 1.10208C13.565 0.700695 14.1384 0.5 14.7596 0.5C15.3091 0.5 15.7989 0.636186 16.229 0.908558C16.667 1.16659 17.0333 1.46047 17.328 1.79018L16.7785 4.1555C16.5555 3.8688 16.2767 3.58926 15.9423 3.31689C15.6078 3.04452 15.2295 2.90833 14.8074 2.90833C14.4251 2.90833 14.0588 3.05169 13.7084 3.33839C13.358 3.61076 13.0514 4.00498 12.7886 4.52106C12.5258 5.02279 12.3147 5.61054 12.1554 6.2843C12.0041 6.95806 11.9285 7.68916 11.9285 8.4776C11.9285 9.29471 11.9962 10.0473 12.1315 10.7354C12.2749 11.4092 12.474 11.9969 12.7288 12.4987C12.9916 13.0004 13.3022 13.3946 13.6606 13.6813C14.0269 13.9537 14.4331 14.0899 14.8791 14.0899C15.333 14.0899 15.7272 13.968 16.0617 13.7243C16.4042 13.4663 16.6789 13.1796 16.886 12.8642L17.4713 15.1005Z" fill="#5A5A66"/>
<path d="M19.3267 0.672024H25.0965V3.08036H20.7243V7.25193H24.6187V9.68177H20.7243V13.9179H25.2637V16.3262H19.3267V0.672024Z" fill="#5A5A66"/>
</svg>
